<?xml version="1.0" ?><!DOCTYPE svg  PUBLIC '-//W3C//DTD SVG 1.1//EN'  'http://www.w3.org/Graphics/SVG/1.1/DTD/svg11.dtd'><svg enable-background="new 0 0 100 100" height="100px" version="1.1" viewBox="0 0 100 100" width="100px" xml:space="preserve" xmlns="http://www.w3.org/2000/svg" xmlns:xlink="http://www.w3.org/1999/xlink"><g id="color_x5F_fill"><path d="M33.13,80.514l-13.072-0.068c-0.012-1.021,0.289-4.897,0.201-6.163c-0.1-1.412-0.139-6.96-0.157-8.34   c-0.017-1.378,0.091-7.525,0.124-9.241c0.044-2.294-0.043-4.588-0.043-6.882c0-3.328,0-7.17,0-10.191c0,0,9.234-1.185,12.676,0   l0.039,2.091c-0.005,1.159-0.018,5.775,0.027,6.903c0.105,2.597,0.32,5.625,0.217,8.245c-0.102,2.616-0.041,6.228,0.027,8.791   C33.318,71.3,33.216,75.196,33.13,80.514z M29.858,19.699c-4.039-1.816-9.531,0.494-10.734,4.939   c-0.666,2.457,0.178,5.552,2.122,6.957C30.949,38.604,39.688,24.118,29.858,19.699z M81.101,60.868   c-0.004-2.076-0.432-8.791-0.545-10.069c-0.089-1.006-0.089-1.006-0.408-3.107c-0.199-1.309-1.127-2.468-2.015-3.432   c-2.532-2.75-5.286-3.98-8.714-5.175c-2.801-0.975-5.037-0.227-7.805,0.14c-3.17,0.418-8.042,5.992-8.042,5.992   c-0.192-1.292,0-4.02-0.188-5.597c-2.017-0.147-3.72-0.035-5.878-0.126c-1.865-0.08-4.014,0.037-6.473,0   c0,0-0.092,6.212-0.136,8.056c-0.045,1.854,0.019,3.712,0,5.567c-0.034,3.468,0.2,7.209,0.341,10.702   c0.229,5.704-0.082,11.706-0.068,17.104h1.227c3.906,0,7.403,0,11.311,0c0,0,0.035-5.202-0.068-6.678   c-0.15-2.175-0.137-16.013,0.068-18.603c0.205-2.589,2.949-5.939,7.359-5.928c1.636,0.004,3.841,0.268,5.079,1.465   c0.741,0.716,1.74,3.205,2.01,5.81c0.271,2.605,0.134,16.023,0.134,23.798l12.675,0.136C80.194,79.258,81.104,63.237,81.101,60.868   z" fill="#6599C8"/></g><g id="offset_x5F_print_x5F_outline"/></svg>